<svg xmlns="http://www.w3.org/2000/svg" width="1200" height="630" viewBox="0 0 1200 630" role="img" aria-labelledby="title desc">
  <title id="title">Panchan Skills</title>
  <desc id="desc">A pixel-style social preview image for the Panchan Skills Codex skill catalog.</desc>
  <rect width="1200" height="630" fill="#fff7ed"/>
  <path d="M0 0h1200v32H0zM0 598h1200v32H0z" fill="#111827"/>
  <path d="M64 64h1072v502H64z" fill="#d8f3ff" stroke="#111827" stroke-width="8"/>
  <path d="M96 96h1008v88H96z" fill="#67e8f9" stroke="#111827" stroke-width="6"/>
  <path d="M96 220h488v250H96z" fill="#fffde7" stroke="#111827" stroke-width="6"/>
  <path d="M616 220h488v250H616z" fill="#fde2f3" stroke="#111827" stroke-width="6"/>
  <path d="M149 274h112v112H149z" fill="#111827"/>
  <path d="M173 250h112v112H173z" fill="#67e8f9" stroke="#111827" stroke-width="6"/>
  <path d="M214 277h30v30h-30zM214 319h30v30h-30z" fill="#111827"/>
  <path d="M272 302h196v24H272zM272 346h248v24H272z" fill="#111827"/>
  <path d="M668 270h372v32H668zM668 326h308v32H668zM668 382h220v32H668z" fill="#111827"/>
  <text x="132" y="151" fill="#111827" font-family="Arial, Helvetica, sans-serif" font-size="46" font-weight="900">Panchan Skills</text>
  <text x="132" y="530" fill="#111827" font-family="Arial, Helvetica, sans-serif" font-size="28" font-weight="700">Cloud catalog for Codex skills</text>
  <text x="816" y="530" fill="#111827" font-family="Arial, Helvetica, sans-serif" font-size="24" font-weight="900">panda2chan.github.io</text>
</svg>
